<mxfile host="app.diagrams.net" modified="2024-05-09T14:01:16.027Z" agent="Mozilla/5.0 (Windows NT 10.0; Win64; x64) AppleWebKit/537.36 (KHTML, like Gecko) Chrome/124.0.0.0 Safari/537.36" etag="2mva7ZHoup_HHn4Sjng-" version="24.3.1" type="github">
  <diagram name="Pagina-1" id="c9PbucFEq4SZAjakisf3">
    <mxGraphModel dx="660" dy="648" grid="1" gridSize="10" guides="1" tooltips="1" connect="1" arrows="1" fold="1" page="1" pageScale="1" pageWidth="827" pageHeight="1169" math="0" shadow="0">
      <root>
        <mxCell id="0" />
        <mxCell id="1" parent="0" />
        <mxCell id="ZCSGnojx_jVq3Yzfgu01-1" value="User&amp;nbsp;" style="shape=umlActor;html=1;verticalLabelPosition=bottom;verticalAlign=top;align=center;" vertex="1" parent="1">
          <mxGeometry x="80" y="318.75" width="50" height="110" as="geometry" />
        </mxCell>
        <mxCell id="ZCSGnojx_jVq3Yzfgu01-2" value="" style="whiteSpace=wrap;html=1;aspect=fixed;" vertex="1" parent="1">
          <mxGeometry x="185" y="177.5" width="392.5" height="392.5" as="geometry" />
        </mxCell>
        <mxCell id="ZCSGnojx_jVq3Yzfgu01-3" value="" style="line;strokeWidth=2;html=1;" vertex="1" parent="1">
          <mxGeometry x="180" y="230" width="90" height="10" as="geometry" />
        </mxCell>
        <mxCell id="ZCSGnojx_jVq3Yzfgu01-4" value="" style="line;strokeWidth=2;html=1;rotation=-45;" vertex="1" parent="1">
          <mxGeometry x="251.46" y="203.54" width="80" height="10" as="geometry" />
        </mxCell>
        <UserObject label="&lt;font style=&quot;font-size: 17px;&quot;&gt;Singola&amp;nbsp;&lt;/font&gt;&lt;div style=&quot;font-size: 17px;&quot;&gt;&lt;font style=&quot;font-size: 17px;&quot;&gt;partita&lt;/font&gt;&lt;/div&gt;" placeholders="1" name="Variable" id="ZCSGnojx_jVq3Yzfgu01-5">
          <mxCell style="text;html=1;strokeColor=none;fillColor=none;align=center;verticalAlign=middle;whiteSpace=wrap;overflow=hidden;" vertex="1" parent="1">
            <mxGeometry x="185" y="183.54" width="80" height="46.46" as="geometry" />
          </mxCell>
        </UserObject>
        <mxCell id="ZCSGnojx_jVq3Yzfgu01-9" value="View grafico" style="shape=ellipse;html=1;strokeWidth=3;fontStyle=1;whiteSpace=wrap;align=center;perimeter=ellipsePerimeter;" vertex="1" parent="1">
          <mxGeometry x="316.25" y="490" width="120" height="60" as="geometry" />
        </mxCell>
        <mxCell id="ZCSGnojx_jVq3Yzfgu01-10" value="&amp;lt;&amp;lt;extend&amp;gt;&amp;gt;" style="edgeStyle=none;html=1;startArrow=open;endArrow=none;startSize=12;verticalAlign=bottom;dashed=1;labelBackgroundColor=none;rounded=0;exitX=0.5;exitY=1;exitDx=0;exitDy=0;" edge="1" parent="1" target="ZCSGnojx_jVq3Yzfgu01-9">
          <mxGeometry width="160" relative="1" as="geometry">
            <mxPoint x="376.25" y="413.75" as="sourcePoint" />
            <mxPoint x="410" y="320" as="targetPoint" />
          </mxGeometry>
        </mxCell>
        <mxCell id="ZCSGnojx_jVq3Yzfgu01-11" value="Salva dati partita&amp;nbsp;" style="shape=ellipse;html=1;strokeWidth=3;fontStyle=1;whiteSpace=wrap;align=center;perimeter=ellipsePerimeter;" vertex="1" parent="1">
          <mxGeometry x="320" y="205" width="120" height="60" as="geometry" />
        </mxCell>
        <mxCell id="ZCSGnojx_jVq3Yzfgu01-12" value="Registra statistiche&amp;nbsp;&lt;div&gt;giocatori&lt;/div&gt;" style="shape=ellipse;html=1;strokeWidth=3;fontStyle=1;whiteSpace=wrap;align=center;perimeter=ellipsePerimeter;" vertex="1" parent="1">
          <mxGeometry x="304.38" y="330" width="143.75" height="73.75" as="geometry" />
        </mxCell>
        <mxCell id="ZCSGnojx_jVq3Yzfgu01-15" value="&amp;lt;&amp;lt;include&amp;gt;&amp;gt;" style="edgeStyle=none;html=1;endArrow=open;verticalAlign=bottom;dashed=1;labelBackgroundColor=none;rounded=0;exitX=0.5;exitY=0;exitDx=0;exitDy=0;entryX=0.5;entryY=1;entryDx=0;entryDy=0;" edge="1" parent="1" source="ZCSGnojx_jVq3Yzfgu01-12" target="ZCSGnojx_jVq3Yzfgu01-11">
          <mxGeometry width="160" relative="1" as="geometry">
            <mxPoint x="316.25" y="310" as="sourcePoint" />
            <mxPoint x="476.25" y="310" as="targetPoint" />
          </mxGeometry>
        </mxCell>
        <mxCell id="ZCSGnojx_jVq3Yzfgu01-16" value="" style="edgeStyle=none;html=1;endArrow=none;verticalAlign=bottom;rounded=0;" edge="1" parent="1" source="ZCSGnojx_jVq3Yzfgu01-1" target="ZCSGnojx_jVq3Yzfgu01-12">
          <mxGeometry width="160" relative="1" as="geometry">
            <mxPoint x="250" y="320" as="sourcePoint" />
            <mxPoint x="410" y="320" as="targetPoint" />
          </mxGeometry>
        </mxCell>
        <mxCell id="ZCSGnojx_jVq3Yzfgu01-17" value="&quot;&quot;Database&quot;" style="shape=umlActor;html=1;verticalLabelPosition=bottom;verticalAlign=top;align=center;" vertex="1" parent="1">
          <mxGeometry x="640" y="280" width="60" height="116.88" as="geometry" />
        </mxCell>
        <mxCell id="ZCSGnojx_jVq3Yzfgu01-19" value="" style="edgeStyle=none;html=1;endArrow=none;verticalAlign=bottom;rounded=0;exitX=1;exitY=0.5;exitDx=0;exitDy=0;" edge="1" parent="1" source="ZCSGnojx_jVq3Yzfgu01-11" target="ZCSGnojx_jVq3Yzfgu01-17">
          <mxGeometry width="160" relative="1" as="geometry">
            <mxPoint x="610" y="290" as="sourcePoint" />
            <mxPoint x="570" y="320" as="targetPoint" />
          </mxGeometry>
        </mxCell>
        <mxCell id="ZCSGnojx_jVq3Yzfgu01-20" value="System Boundary" style="text;html=1;align=center;verticalAlign=middle;whiteSpace=wrap;rounded=0;" vertex="1" parent="1">
          <mxGeometry x="388.13" y="147.5" width="111.87" height="30" as="geometry" />
        </mxCell>
      </root>
    </mxGraphModel>
  </diagram>
</mxfile>
